<?xml version="1.0" encoding="UTF-8"?>
<svg id="_Layer_" data-name="&amp;lt;Layer&amp;gt;" xmlns="http://www.w3.org/2000/svg" viewBox="0 0 3276.12 1679.42">
  <defs>
    <style>
      .cls-1 {
        fill: #2a4e96;
      }

      .cls-2 {
        fill: #82b378;
      }

      .cls-3 {
        fill: #4a82d3;
      }

      .cls-4 {
        fill: #ee9849;
      }

      .cls-5 {
        fill: #a8d29f;
      }

      .cls-6 {
        fill: #4a75cb;
      }

      .cls-7 {
        fill: #c95c12;
      }

      .cls-8 {
        fill: #f1a34f;
      }

      .cls-9 {
        fill: #2e3552;
      }

      .cls-10 {
        fill: #4271bc;
      }

      .cls-11 {
        fill: #1e3d70;
      }

      .cls-12 {
        fill: #a9453d;
      }

      .cls-13 {
        fill: #35488b;
      }

      .cls-14 {
        fill: #fbecdb;
      }

      .cls-15 {
        fill: #ffb973;
      }

      .cls-16 {
        fill: #e58638;
      }

      .cls-17 {
        fill: #2c3a64;
      }

      .cls-18 {
        fill: #ed975d;
      }

      .cls-19 {
        fill: #d86713;
      }

      .cls-20 {
        fill: #ffb27d;
      }

      .cls-21 {
        fill: #233862;
      }

      .cls-22 {
        fill: #699dee;
      }

      .cls-23 {
        fill: #2b478b;
      }
    </style>
  </defs>
  <path class="cls-14" d="m163.65,1678.92S-188.28,929.47,505.33,929.47c366.48,0,215.51-205.62,464.67-443.59,249.16-237.97,1120.53-428.09,1305.99,31.43,185.46,459.53-272.88,808.43,170.01,748.57,532.22-71.92,742.47,413.03,742.47,413.03H163.65Z"/>
  <path class="cls-5" d="m3013.94,1583.82c-32.84-24-99.95-7.8-149.48,9.53-7.4-10.4-16.37-21.11-27.22-31.59,106.7-68.73,254.06-215.31,175.96-227.72-67.9-10.79-159.53,121.15-208.5,201.47-50.85-34.21-128.78-59.36-247.75-50.64-308.76,22.64-549.96-176.53-727.76-110.1-141.37,52.81-270.92,82.4-395.87,72.3,5.38-91.27,6.54-270.48-65.13-289.08-72.76-18.87-1.39,184.65,38.28,286.27-9.31-1.19-18.59-2.61-27.86-4.26-25.69-50.65-68.02-116.93-114.49-119.2-43.77-2.13,10.25,57.45,63.41,107.94-152.8-32.08-334.05,92.12-337.05,238.98h1907.57s-3.38-21.44-18.35-49.7c73.73-1.44,169.92-8.14,134.24-34.21Z"/>
  <g>
    <rect class="cls-6" x="903.83" y="1554.23" width="502.76" height="113.53"/>
    <rect class="cls-22" x="748.81" y="1554.23" width="502.76" height="113.53"/>
  </g>
  <g>
    <g>
      <rect class="cls-19" x="1604.37" y="1144.47" width="374.36" height="523.26" transform="translate(3583.11 2812.2) rotate(180)"/>
      <rect class="cls-8" x="1488.94" y="1144.47" width="374.36" height="523.26" transform="translate(3352.25 2812.2) rotate(180)"/>
    </g>
    <polygon class="cls-7" points="1863.31 1144.47 1978.74 1223.04 1978.74 1144.47 1863.31 1144.47"/>
  </g>
  <g>
    <path class="cls-2" d="m707.68,1260.38s-70.01,52.06-83.66,48.9c-13.65-3.16,51.17-56.2,51.17-56.2-24.39-11.73-100.21-4.37-100.21-4.37,0,0-25.25,81.44-37.71,75.02-12.45-6.42,26.04-70.97,26.04-70.97-27.16-1.64-60.48,18.53-60.48,18.53-45.61,36.02,3,92.73,3,92.73,0,0-9.36,28.04-38.17,53.56,0,0-41.14,30.42-44,84.79l7.47.67s11.84-50.63,33.35-74.58c.84-.87,2.05-2.11,3.55-3.62,3.51-3.24,5.96-5.68,7.61-7.49,10.7-10.29,25.5-23.39,32.63-24.66,0,0-.36-1.31-.3-3.58.1,1.15.2,2.33.3,3.58,2.44,28.66,58.05,53.69,92.26,58.84,34.21,5.15,23.63-8.91,11.85-29.76-11.79-20.85-49.09-30.18-57.6-39.78-8.51-9.6,9.08-9.62,29.7-.21,20.61,9.41,23.43,34.51,56.5,50.35,33.06,15.83,82.82-39.03,82.82-39.03-26.35-1.34-63.98-29.96-62.62-38.71,1.36-8.76,63.88,15.11,74.56,16.25,10.69,1.15,35-12.15,38.76-55.2,3.76-43.05-66.8-55.06-66.8-55.06Z"/>
    <g>
      <path class="cls-5" d="m335.86,1292.7s77.33-43.3,41.24-102.07c0,0-28.87-36.09-59.8-45.37,0,0,16.5,87.64,0,89.7-16.5,2.06-11.34-98.98-11.34-98.98,0,0-81.45-39.18-113.41-36.09,0,0,50.52,85.58,34.02,83.51-16.5-2.06-73.2-88.67-73.2-88.67,0,0-83.51-15.47-96.92,34.02-13.4,49.49,8.25,74.23,20.62,77.33,12.37,3.09,91.76,2.06,89.7,12.37-2.06,10.31-55.67,26.81-85.57,17.53,0,0,32.99,81.45,76.3,77.33,43.3-4.13,56.71-30.93,83.51-32.99,26.81-2.06,46.4,5.15,32.99,12.37-13.4,7.22-58.77,2.36-80.42,20.77-21.65,18.41-39.18,29.75,1.03,38,40.21,8.25,112.38,3.09,126.81-27.84l14.43-30.93Z"/>
      <path class="cls-2" d="m356.48,1367.97c-21.65-40.21-20.62-75.26-20.62-75.26-24.74-78.36-241.26-148.47-241.26-148.47,275.28,111.35,226.82,179.4,226.82,179.4,7.42,4.33,18.54,24.96,26.26,40.79,1.1,2.69,2.84,6.42,5.43,11.48h0c1.05,2.29,1.89,4.16,2.47,5.47,14.17,35.46,6.66,96.71,6.66,96.71l8.59,2.31c19.04-61.72-14.35-112.43-14.35-112.43Z"/>
    </g>
    <g>
      <path class="cls-5" d="m458.88,1232.98s-101.93-57.08-54.36-134.55c0,0,38.05-47.57,78.83-59.8,0,0-21.75,115.52,0,118.24,21.75,2.72,14.95-130.47,14.95-130.47,0,0,107.37-51.65,149.5-47.57,0,0-66.6,112.8-44.85,110.08,21.75-2.72,96.5-116.88,96.5-116.88,0,0,110.09-20.39,127.75,44.85,17.67,65.24-10.87,97.85-27.18,101.93-16.31,4.08-120.96,2.72-118.24,16.31,2.72,13.59,73.39,35.34,112.8,23.1,0,0-43.49,107.37-100.57,101.93-57.08-5.44-74.75-40.77-110.09-43.49-35.34-2.72-61.16,6.79-43.49,16.31,17.67,9.51,77.47,3.12,106.01,27.38,28.54,24.26,51.65,39.21-1.36,50.09-53,10.87-148.14,4.08-167.17-36.7l-19.03-40.77Z"/>
      <path class="cls-2" d="m776.9,1037.27s-285.41,92.42-318.02,195.71c0,0,1.36,46.21-27.18,99.21,0,0-44.01,66.84-18.92,148.2l11.32-3.04s-9.9-80.73,8.79-127.48c.76-1.72,1.87-4.19,3.25-7.21h0c3.41-6.67,5.71-11.59,7.15-15.14,10.18-20.87,24.84-48.07,34.62-53.77,0,0-63.88-89.7,299-236.48Z"/>
    </g>
    <path class="cls-8" d="m455.44,1656.83c110.27,0,199.67-89.39,199.67-199.67H255.78c0,110.27,89.39,199.67,199.67,199.67Z"/>
    <path class="cls-15" d="m504.57,1655.3c-8.12,1.01-16.4,1.53-24.81,1.53-110.27,0-199.66-89.4-199.66-199.67h49.6c0,101.88,76.29,185.93,174.86,198.14Z"/>
    <path class="cls-8" d="m633.23,1643.1h-355.58c-13.6,0-24.63,11.03-24.63,24.63h404.85c0-13.6-11.03-24.63-24.63-24.63Z"/>
    <path class="cls-19" d="m656.59,1457.16H252.27c-1.69,0-3.06,1.37-3.06,3.06s1.37,3.06,3.06,3.06h404.32c1.69,0,3.06-1.37,3.06-3.06s-1.37-3.06-3.06-3.06Z"/>
  </g>
  <g>
    <path class="cls-18" d="m2197.33,405.73c-5.79-.88-23.23,15.24-23.23,15.24h0c-37.24,4.3-91.69,14.19-111.28,17.96-13.9,2.68-51.26-10.06-87.76-24.69-43.41-17.4-85.59-37.48-85.59-37.48-24.09-1.23-51.44,42.72-2.59,70.66,7.46,4.27,35.48,11.54,67.74,18.19h0c44.51,9.17,97.08,17.13,114.98,14.33,20.79-3.25,79.64-24.78,114.64-41.27h0s.03-.02.09-.04c.13-.06.26-.12.39-.18,2.1-.98,10.67-4.8,16.39-4.46,6.56.39,21.16-11.61,21.61-14.82.45-3.2-19.6-12.57-25.39-13.45Z"/>
    <path class="cls-23" d="m2151.86,959.34l-20.5,4.17s-93.83-105.42-108.31-149.79c-7.75-23.71-57.28-33.95-109.05-47.34-45.06-11.65-91.81-25.69-114.13-53.07-47.99-58.84,30.14-131.14,30.14-131.14,0,0,83.07,49.37,154.73,100.37,50.09,35.64,94.61,72.08,101.31,93.03,16.29,50.93,50.84,147.73,65.81,183.77Z"/>
    <path class="cls-21" d="m2124.42,994.12h11.53c3.86-.61,6.72-1.73,10.68-2.24,6.02-.79,8.79,1.68,9.34,2.24.08.08.11.12.11.12h48.99c1.23-1.76.05-5.84-1.11-8.84-.78-2.04-2.48-3.58-4.59-4.19-5.19-1.51-15.44-2.84-24.82-11.34-5.28-4.77-25.48-17.53-25.48-17.53l-.11-.02c-.44,0-2.56.66-11.75,8.42-4.75,4-12.85-5.66-12.85-5.66,0,0-1.52,1.26-2.66,3.6-.91,1.85-1.58,4.39-1.05,7.52.73,4.41-1.63,12.62-3.51,18.17-1.14,3.36-2.1,5.75-2.1,5.75,0,0-.55,2.77,9.37,4.01Z"/>
    <path class="cls-11" d="m1984.73,682.54l-70.73,83.84c-45.06-11.65-91.81-25.69-114.13-53.07-47.99-58.84,30.14-131.14,30.14-131.14,0,0,83.07,49.37,154.73,100.37Z"/>
    <path class="cls-23" d="m1920.46,638.75s-5.7,17.98-14.99,45.04c-11.74,34.21-29.22,82.91-48.19,128.08-4.17,9.92-8.41,19.68-12.68,29.08-15.77,34.76-31.92,64.55-46.13,79.7-25.54,27.22-87.63,202.22-87.63,202.22l-15.47-4.28s-21.57-149.43,54.84-234.46c.82-.91,1.46-1.96,1.55-3.17.01,0,.01-.02.01-.03,1.02-12.59,4.65-68.95,12.57-126.07,1.95-14.01,4.14-28.06,6.62-41.52.15-.86.32-1.71.47-2.56,11.63-62.24,22.76-89.93,37.12-103.86l105.65,30.07,6.26,1.78Z"/>
    <path class="cls-21" d="m1693.64,1144.35h11.53c3.86-.61,6.72-1.73,10.68-2.24,6.02-.79,8.79,1.68,9.34,2.24.07.07.11.12.11.12h48.99c1.23-1.76.05-5.84-1.11-8.84-.78-2.04-2.48-3.58-4.59-4.19-5.19-1.5-15.44-2.84-24.82-11.33-5.28-4.77-25.48-17.53-25.48-17.53l-.11-.02c-.44,0-2.56.66-11.75,8.42-4.75,4-12.85-5.66-12.85-5.66,0,0-1.52,1.26-2.66,3.6-.91,1.85-1.58,4.39-1.05,7.52.73,4.41-1.63,12.62-3.51,18.17-1.14,3.36-2.11,5.75-2.11,5.75,0,0-.55,2.77,9.37,4.01Z"/>
    <path class="cls-20" d="m1716.3,435.52s-17.68,43.24-38.06,85.34c-17.14,35.39-36.19,69.96-48.27,77.34-17.03,10.4-63.94,39.75-94.38,61.64,0,0-23.75-.18-27.44,4.37-3.69,4.55-12.2,24.98-9.72,27.04,2.49,2.07,21.37,1.11,25.95-3.59,4-4.1,12.91-7.05,15.12-7.74.14-.04.27-.08.41-.13.06-.02.09-.03.09-.03h0c36.98-11.38,94.99-35.08,112.55-46.67,15.12-9.98,48.64-51.27,75.37-88.01h0c19.38-26.64,35.2-50.88,37.84-59.06,17.31-53.54-32.5-67.62-49.49-50.5Z"/>
    <path class="cls-17" d="m1808.75,265.95c-2.1-3.06-4.22-5.76-6.33-8.18,2.62.06,5.45-.2,7.8-1.17,6.21-2.57,9.03-22.26,8.1-28.11-.93-5.84-9.55-22.74-20.18-24.42-10.63-1.69-21.61,10.12-21.61,10.12,1.96-8.52,19.95-13.43,19.95-13.43-37.04,6.83-35.15,31.53-34.9,33.81-33.91-12.08-53.81,51.77-53.81,51.77l87.83,51.76s.23-14.1,8.61-13.19c13.07,1.42,23.94-30.67,4.54-58.95Z"/>
    <path class="cls-20" d="m1814.35,399.92c-20.15,9.5-46.89-4.18-46.75-4.33,1.73-1.73,1.12-6.9-.46-13.67-1.58-7.05-5.33-16.7-12.23-28.21-1.44-2.45-2.88-4.89-4.61-7.49l2.3-.86,39.15-15.69s6.33,11.37,12.96,21.73c5.61,8.64,11.51,16.41,14.11,16.12.14-.14,26.05,17.71-4.46,32.39Z"/>
    <path class="cls-18" d="m1791.75,333.56c-1.01,13.96-5.76,39.15-24.61,48.37-1.58-7.05-5.33-16.7-12.23-28.21l36.85-20.15Z"/>
    <path class="cls-20" d="m1752.6,369.61s50.97-20.09,37.97-51.64c-13-31.55-15.18-55.39-48.27-43.9-33.09,11.49-34.42,26.12-32.64,37.71,1.78,11.59,29.34,62.25,42.94,57.83Z"/>
    <path class="cls-17" d="m1771.62,310.77c23.53-3.32,30.41-12.84,30.41-12.84,0,0-21.67-6.22-34.41-27.45,0,0-26.45-8.92-46.06,5.99-1.19,1.55-2.05,3.38-2.48,5.53-4.49-1.47-11.25-1.09-15.15,11.61-5.86,19.08,14.98,39.91,14.98,39.91,5.05-1.43-.65-18.43-1.44-27.5-.58-6.68,3.02-15.23,4.96-19.28,2.49,3.24,27.33,34.44,57.64,35.69,0,0-16.02-5.55-30.59-16.43,7.25,3.56,14.96,5.78,22.15,4.77Z"/>
    <path class="cls-22" d="m1911.39,464.93c-.43-1.52-.89-3.1-1.38-4.72,7.57-14.47,11.29-27.51,12.87-38.55,3.46-23.32-2.45-37.72-2.45-37.72,0,0-35.36-18.75-50.97-21.14-.07-.03-.13-.05-.19-.06-.18-.03-.4-.04-.63-.06-15.76-2.17-49.88,4.79-49.88,4.79,0,0,6.58,17.52-11.99,29.2-18.57,11.68-38.4-2.99-38.4-2.99-.6.4-1.24.85-1.89,1.31,0,0,0,0,0,0,0,0-48.86,32.23-53.24,39.6-4.39,7.37-23.17,43.84-23.17,43.84,0,0,5.96,30.62,71.96,33.18,5.42,13.16,9.58,25.99,10.93,36.7,5.24,41.56-.84,74.35,5.27,98.61,6.11,24.26,116.23,10.43,136.17,5.76,19.94-4.67,15.46-25.96,16.99-46.65,1.93-25.99-13.49-118.19-19.99-141.12Z"/>
    <path class="cls-3" d="m1922.88,421.66c-1.58,11.08-5.32,24.18-12.95,38.72-1.73-7.63-8.78-35.55-20.15-48.22,0,0,19.14,1.73,33.11,9.5Z"/>
  </g>
  <g>
    <path class="cls-18" d="m1474.51,694.06s20.52-24.86,24.93-27.8c4.42-2.94,23.79-8.09,24.9-7.05,1.11,1.04,1.16,2.54-1.24,4.66-2.4,2.12-11.56,7.47-10.26,8.07,1.31.6,28.96-13.16,32.94-8.53,3.99,4.63-2.26,23.74-12.91,32.9-10.65,9.16-42.45,13.07-44.46,14.35-16.96,10.85-13.91-16.59-13.91-16.59Z"/>
    <path class="cls-20" d="m1113.32,636.66s29.47,34.97,67.01,20.34c0,0,8.08-19.53,8.19-33.92.01-1.77.04-3.49.06-5.12.2-16.21.75-25.31.75-25.31,0,0-.01,0-.04,0-1.71-.71-57.38-23.57-57.33-21.67.95,43.84-18.64,65.69-18.64,65.69Z"/>
    <path class="cls-18" d="m1137.54,581.42c5.37,9.95,23.79,29.42,51.03,36.53.2-16.21.75-25.31.75-25.31,0,0-.01,0-.04,0-1.54-.41-53.34-14.15-51.74-11.21Z"/>
    <path class="cls-20" d="m1200.98,590.96s-62.6,14.72-71.17-24.41c-8.57-39.13-22.41-63.58,17.19-74.63,39.61-11.05,50.67,2.17,56.7,14.54,6.04,12.37,13.34,79.67-2.73,84.5Z"/>
    <path class="cls-12" d="m1131.95,577.21c-.86.55-14.33,4.69-39.84-46.14-4-7.98-6.73-25.24,2.6-40.48,9.34-15.25,42.43-27.24,69.94-32.46,27.5-5.22,34.1,10.26,40.58,25.81,6.8,16.33,26.43,29.77,26.43,29.77-23.71,13.25-52.28-5.7-62.17-2.58-9.9,3.12-13.39,18.71-14.13,23.71-.74,5-1.88,9.15-14.33,4.69-12.44-4.46-5.63,17.63-3.63,21.86,0,0,1.69,11.26-5.45,15.83Z"/>
    <g>
      <path class="cls-17" d="m970.68,1554.23h-37.91c-7.95,0-16.78-8.06-18.99-22.83-2.21-14.77-18.55-22.82-22.08-34.91-3.54-12.08,14.58-29.1,14.58-29.1l3.03-3.94,3.15-4.11,30.03,7.16s.74,7.25,1.2,16.48c.32,6.66.5,14.37.12,21.12-.88,16.12,4.45,33.46,18.58,36.6,14.14,3.14,8.29,13.53,8.29,13.53Z"/>
      <path class="cls-17" d="m1234.58,1554.6h-100.48c-.96-.19-1.69-.41-2.13-.64-6.71-3.46-4.61-29.9-3.8-38.07.16-1.51.26-2.4.26-2.4,0,0,35.33-29.1,40.2-6.82.15.69.33,1.38.52,2.05h0c6.13,20.86,33.55,30.32,49.39,32.97,12.1,2.03,15.24,9.28,16.05,12.92Z"/>
      <path class="cls-4" d="m1214.32,973.52s-5.37,66.95-11.67,147.43c-8.57,109.32-18.88,243.61-19.9,269.05-1.76,44.17-8.84,114.84-8.84,114.84,0,0-16.78,16.79-50.35,9.71,0,0-29.92-100.87-38.46-207.6-.13-1.75-.27-3.51-.4-5.27-7.95-108.65-20.31-337.43-20.31-337.43l149.93,9.28Z"/>
      <path class="cls-16" d="m1214.32,973.52s-5.37,66.95-11.67,147.43l-117.55,186c-.13-1.75-.27-3.51-.4-5.27-7.95-108.65-20.31-337.43-20.31-337.43l149.93,9.28Z"/>
      <path class="cls-4" d="m1189.82,981.47s-96.72,242.47-160.32,356.42c-63.6,113.95-83.47,145.75-83.47,145.75,0,0-36.44-14.58-39.75-24.51,0,0,24.32-219.98,66.91-273.61,24.07-30.3,52.34-121.23,53.66-153.03,1.33-31.8,8.61-94.73,8.61-94.73l154.36,43.72Z"/>
    </g>
    <g>
      <path class="cls-18" d="m968.36,941.09s-2.5,30.28-4.34,34.93c-1.84,4.65-14.06,19.06-15.48,18.86-1.42-.21-2.26-1.34-1.55-4.28.72-2.93,4.93-12,3.6-11.77-1.34.24-15.33,25.77-20.91,24.33-5.58-1.44-11.03-19.59-7.71-32.41,3.32-12.82,25.83-32.96,26.69-35.02,7.29-17.52,19.69,5.36,19.69,5.36Z"/>
      <path class="cls-11" d="m957.98,948.77c10.71,3.44,12.42,2.66,12.42,2.66,0,0,52.11-94.87,57.39-103.55,5.28-8.68,110.63-106.38,110.63-106.38l-27.07-100.96s-119.83,155.17-132.77,177.44c-21.38,36.79-33.91,122.25-33.91,122.25,0,0,4.91,5.85,13.32,8.55Z"/>
    </g>
    <path class="cls-1" d="m1234.74,781.13c-.38,20.73-1.58,44.04-3.2,67.72-.1,1.4-.2,2.81-.3,4.21-1.04,14.67-2.17,29.37-3.46,43.7-.52,5.75-1.07,11.43-1.65,17.01l-.09.75c-.04,2.09-.3,4.35-.53,6.42-5.28,53.69-10.82,96.11-11.85,96.76-1.23.82-2.61,1.23-4.12,1.05-14.08-1.77-56.09,1.43-90.48-6.06-29.02-6.12-54.01-17.73-80.49-33.38-3.51-2.08-11.53-7.58-10.87-11.69.64-4.52,1.82-11.05,3.33-19.26,5.22-28.56,14.22-77.68,17.3-135.18.6-10.71,1.47-21.29,2.6-31.69,2.95-27.09,7.68-52.82,14.03-75.67,11.79-42.46,29.12-74.98,50.86-87.7,2.84-1.59,18.12,8.13,32.16,17.14,12.96,8.31,26.61,10.61,39.89,9.45l11.68,12.92c14.15,16.45,29.21,38.34,33.32,69.46.31,2.3.58,4.74.8,7.34,1.14,12.68,1.42,28.72,1.09,46.69Z"/>
    <path class="cls-11" d="m1234.74,781.13c-.38,20.73-1.58,44.04-3.2,67.72-.1,1.4-.2,2.81-.3,4.21-80.42-50.34-92.81-142.46-92.81-142.46,39.57,1.74,71,10.83,95.22,23.84,1.14,12.68,1.42,28.72,1.09,46.69Z"/>
    <path class="cls-1" d="m1486.71,696.55c-4.15-11.22-10.59-10.49-10.59-10.49,0,0-119.58,29.8-130.31,31.08-10.73,1.28-128.77-46.09-128.77-46.09,0,0-46.46-20.85-68.22-1.81-18.91,16.55-19.77,37.5-15.35,55.1,5.27,20.97,23.02,36.47,44.47,39.2,48.16,6.13,144.24,17.68,164.37,14.88,44.82-6.24,146.38-64.86,146.38-64.86,0,0,1.28-8.2-1.98-17.01Z"/>
  </g>
  <g id="man">
    <g>
      <path class="cls-17" d="m2665.84,915.73s16.61,15.4,13.37,26.34c-3.24,10.94-18.24,18.23-20.26,31.61-2.03,13.37-10.13,20.67-17.42,20.67h-34.77s-5.37-9.41,7.6-12.25c12.97-2.84,17.86-18.55,17.04-33.14-.81-14.59,1.22-34.04,1.22-34.04l27.55-6.48,5.67,7.29Z"/>
      <path class="cls-17" d="m2458.78,992.52c-1.68.85-7.61,1.43-15.74,1.82h-78.64c.26-2.34,2.09-10.68,14.95-12.75,14.53-2.36,39.69-10.8,45.3-29.39.19-.59.35-1.21.49-1.82,4.45-19.85,36.87,6.07,36.87,6.07,0,0,.09.79.23,2.15.76,7.3,2.68,30.85-3.47,33.91Z"/>
      <path class="cls-13" d="m2383.21,461.46s4.92,61.43,10.71,135.26c7.87,100.3,17.32,223.5,18.26,246.84,1.62,40.53,8.11,105.36,8.11,105.36,0,0,15.39,15.4,46.19,8.91,0,0,27.45-92.54,35.29-190.46.12-1.6.24-3.22.36-4.84,7.29-99.68,18.64-309.58,18.64-309.58l-137.56,8.51Z"/>
      <path class="cls-17" d="m2383.21,461.46s4.92,61.43,10.71,135.26l107.85,170.65c.12-1.6.24-3.22.36-4.84,7.29-99.68,18.64-309.58,18.64-309.58l-137.56,8.51Z"/>
      <path class="cls-13" d="m2405.7,468.75s88.74,222.46,147.09,327c58.35,104.54,76.58,133.72,76.58,133.72,0,0,33.43-13.37,36.47-22.49,0,0-22.31-201.82-61.39-251.02-22.08-27.8-48.02-111.23-49.23-140.4-1.22-29.17-7.9-86.92-7.9-86.92l-141.62,40.12Z"/>
    </g>
    <g>
      <path class="cls-20" d="m2131.99,348.1s-24.07-5.5-28.12-5.23c-4.05.28-18.22,6.21-18.41,7.36-.19,1.15.48,2.08,2.93,2.25,2.45.17,10.51-.87,10,.11-.51.97-23.73,5.54-23.98,10.21-.26,4.67,12.46,13.36,23.21,13.94,10.75.58,31.87-11.9,33.69-12.06,15.36-1.34.69-16.57.69-16.57Z"/>
      <path class="cls-16" d="m2121.68,354.21c-3.45-11-2.64-12.75-2.64-12.75,0,0,97.57-52.76,106.5-58.11,8.93-5.35,109.76-112.65,109.76-112.65l103.28,28.43s-159.82,121.75-182.73,134.86c-37.85,21.66-125.51,33.93-125.51,33.93,0,0-5.96-5.07-8.67-13.7Z"/>
    </g>
    <path class="cls-20" d="m2366.6,118.54s-36.21,63.71-71.6,72.02c0,0,1.47-21.4,10.09-36.04-3.53-4.16-6.63-7.99-9.31-11.41-8.91-11.42-13.14-18.4-13.14-18.4l12.01-32.29,8.15-21.91c3.92,7.11,8.23,13.17,12.74,18.35,23.19,26.67,51.07,29.68,51.07,29.68Z"/>
    <path class="cls-18" d="m2315.54,88.86s4.32,31.92-19.75,54.25c-8.91-11.42-13.14-18.4-13.14-18.4l12.01-32.29c12.88-3.92,20.88-3.56,20.88-3.56Z"/>
    <path class="cls-20" d="m2273.1,129.42s54.1-21.09,40.45-54.58c-13.65-33.49-15.87-58.76-50.98-46.71-35.12,12.05-36.58,27.55-34.74,39.83,1.84,12.29,30.85,66.08,45.28,61.46Z"/>
    <path class="cls-4" d="m2552.56,445.45c-21.83,31.38-184.99,73.3-183.05,51.58.74-8.31,1.74-22.97-.02-42.84-.41-4.65-.98-9.58-1.73-14.8-4.14-28.54-13.99-65.23-35.95-107.7-1.65-3.18-3.36-6.39-5.14-9.64-9.04-16.45-16.74-33.83-22.62-50.83-11.31-32.67-15.86-63.92-10.16-84.36.02-.1.06-.19.09-.29,34.11-15.77,47.32-76.93,47.32-76.93,0,0,116.36,20.89,181.54,175.99,0,0,48.72,132.5,29.73,159.81Z"/>
    <path class="cls-16" d="m2369.49,454.19c-.41-4.65-.98-9.58-1.73-14.8-4.14-28.54-13.99-65.23-35.95-107.7,3.77-22.86,8.97-41.86,14.69-50.42,23.21-34.78,36.72-40.22,36.72-40.22,0,0,34.8,146.77-13.73,213.14Z"/>
    <g>
      <path class="cls-20" d="m2186.06,419.27s-32.19,1.69-37.18,3.49c-4.99,1.8-20.66,14.3-20.49,15.81.17,1.51,1.35,2.44,4.48,1.77,3.13-.67,12.88-4.85,12.59-3.44-.29,1.41-27.81,15.43-26.46,21.39,1.35,5.96,20.42,12.32,34.12,9.21,13.7-3.11,35.77-26.34,37.99-27.18,18.81-7.17-5.06-21.05-5.06-21.05Z"/>
      <path class="cls-4" d="m2179.99,431.48c-6.45-10.42-1.8-15.17-1.8-15.17,0,0,99.44-77.86,107.23-85.72,7.8-7.86,43.9-133.11,43.9-133.11,0,0,12.43-50.69,41.53-56.28,25.29-4.86,42.77,7.65,54.2,22.32,13.63,17.48,14.97,41.59,3.65,60.65-25.39,42.78-76.61,127.7-91.56,142.21-33.29,32.29-144.66,77.41-144.66,77.41,0,0-7.43-4.14-12.49-12.32Z"/>
    </g>
    <path class="cls-23" d="m2321.31,12.64c.38-.75,1.48-1.55,4.17-2.37,0,0-2.52-.85-5.45-.2-1.52-3.71-5.21-10.02-12.14-10.07,0,0,3.97,1.03,5.44,5.01-9.49-6.01-27.08-7.76-70.99,6.86-57.87,19.28-28.96,52.87-20.19,55.56,8.77,2.69,24.92-14.59,39.44-16.95,14.52-2.36,22.38,17.87,27.91,19.55,5.54,1.68,2.39-2.93,8.19-7.54,5.8-4.61,9.13,6.24,9,13.85-.13,7.62,11.18,14.84,11.18,14.84l6.63-12.16c6.63-12.16,4.83-56.31-1.51-64.26-.56-.7-1.12-1.41-1.69-2.13Z"/>
  </g>
  <path class="cls-9" d="m3.46,1667.73h3269.2c1.91,0,3.46,1.55,3.46,3.46v4.77c0,1.91-1.55,3.46-3.46,3.46H3.46c-1.91,0-3.46-1.55-3.46-3.46v-4.77c0-1.91,1.55-3.46,3.46-3.46Z"/>
  <polygon class="cls-10" points="1406.59 1552.95 1406.59 1618.45 1251.56 1552.95 1406.59 1552.95"/>
  <rect class="cls-6" x="2220.61" y="994.33" width="512.69" height="673.4"/>
  <rect class="cls-22" x="2062.52" y="994.34" width="512.7" height="673.4"/>
  <polygon class="cls-10" points="2733.3 994.34 2733.3 1095.03 2575.22 994.34 2733.3 994.34"/>
</svg>