<svg version="1.2" xmlns="http://www.w3.org/2000/svg" viewBox="0 0 806 163" width="806" height="163">
	<title>New Project</title>
	<style>
		.s0 { fill: #0b5383 } 
		.s1 { fill: #535457 } 
	</style>
	<path id="Go" class="s0" aria-label="Go"  d="m102.5 80.4v-6.3h-41.5v21.2h35.2v26.9c-9.6 6-20.1 9.1-32 9.1-29.5 0-43-24.9-43-51.6v-1c0-24.8 14.6-50.4 42.1-50.4 10.4 0 18.5 2.1 26.3 6.8l-4.3 7.8c-6.2-3.8-12.1-6-21.5-6-21.4 0-33.2 21.4-33.2 41.8v1c0 21.7 10.5 43 33.4 43 7.3 0 14-1.2 19.5-3.7l3.2-1.5v-13.8l-6.3 0.1v9.6c-3.9 1.8-9.2 3-16.4 3-20 0-27.1-19.9-27.1-36.6v-1.1c0-15.9 8.7-35.5 26.9-35.5 10.7 0 15.9 3.3 23.7 8.8l10.4-18.8c-9.8-7.4-20.2-11.2-34.6-11.2-30.9 0-48.4 28-48.4 56.7v1c0 31.6 17.2 57.9 49.3 57.9 18.6 0 31.1-6.9 38.3-12v-36.6h-35.2v-8.6zm82.6-56.8v6.5c20.9 6.2 30.4 28.1 30.4 49.6 0 25.7-13.3 51.6-43 51.6-29.7 0-43.1-25.9-43.1-51.6 0-24.6 12.4-49.5 39.9-51.3v15c1-0.2 2.1-0.2 3.2-0.2 19.9 0 27.3 20.8 27.3 36.5 0 15.8-7.3 36.7-27.3 36.7-20 0-27.3-20.9-27.3-36.7 0-11.7 4.1-26.5 14.7-33.1v-7.1c-14.3 6.4-21 23.8-21 40.2 0 20.7 10.5 43 33.6 43 23.1 0 33.6-22.3 33.6-43 0-19.6-9.6-40.8-30.5-42.7v-14.8c-1-0.1-2.1-0.2-3.1-0.2-31.5 0-49.4 26.2-49.4 57.7 0 31.5 17.9 57.9 49.4 57.9 31.5 0 49.3-26.4 49.3-57.9 0-27-13.1-50.1-36.7-56.1z"/>
	<path id="Mentors" class="s1" aria-label="Mentors"  d="m244.8 126h-7.3q-1.5 0-2.6-0.9-0.9-1.1-0.9-2.6v-97.9q0-1.6 0.9-2.5 1.1-1.1 2.6-1.1h7.5q1.8 0 2.7 0.9 0.9 0.9 1.2 1.5l31.6 60.6 32-60.6q0.3-0.6 1-1.5 0.9-0.9 2.7-0.9h7.4q1.6 0 2.5 1.1 1.1 0.9 1.1 2.5v98q0 1.5-1.1 2.5-0.9 0.9-2.5 0.9h-7.4q-1.5 0-2.5-0.9-0.9-1-0.9-2.5v-73.8l-25.1 48.9q-0.6 1.5-1.8 2.4-1.2 0.7-3 0.7h-4.6q-1.9 0-3-0.7-1.1-0.9-1.8-2.4l-25.2-48.9v73.8q0 1.5-1.1 2.5-0.9 0.9-2.4 0.9zm137.6 1.5q-15.6 0-24.8-9.4-9.1-9.6-10-26.1-0.2-2-0.2-5 0-3.1 0.2-5.1 0.6-10.6 4.9-18.6 4.4-8.1 11.9-12.4 7.6-4.4 17.8-4.4 11.4 0 19.1 4.8 7.8 4.8 11.8 13.7 4.1 8.8 4.1 20.7v2.5q0 1.7-1.1 2.6-0.9 0.9-2.4 0.9h-51.8q0 0.1 0 0.6 0 0.4 0 0.7 0.2 6.2 2.6 11.6 2.4 5.2 6.9 8.5 4.7 3.3 10.8 3.3 5.4 0 9-1.6 3.7-1.7 5.9-3.6 2.3-2.1 3-3.3 1.3-1.8 2.1-2.1 0.7-0.5 2.4-0.5h7.3q1.4 0 2.3 0.9 1 0.8 0.9 2.3-0.2 2.2-2.4 5.5-2.3 3.2-6.5 6.3-4 3.2-10.2 5.3-6 1.9-13.6 1.9zm-20.5-46.6v0.4h41v-0.4q0-6.8-2.5-12-2.4-5.3-7-8.3-4.7-3.1-11.2-3.1-6.4 0-11.1 3.1-4.5 3-6.9 8.3-2.3 5.2-2.3 12zm84.2 45.1h-7.5q-1.5 0-2.5-0.9-0.9-1-0.9-2.5v-71.1q0-1.5 0.9-2.4 1-1.1 2.5-1.1h7.1q1.5 0 2.4 1.1 1 0.9 1 2.4v6.6q3.9-5.1 9.8-8.3 6-3.3 15.3-3.3 9.7 0 16.5 4.4 6.9 4.2 10.3 11.8 3.6 7.5 3.6 17.6v42.3q0 1.5-1 2.5-0.9 0.9-2.4 0.9h-7.5q-1.5 0-2.6-0.9-0.9-1-0.9-2.5v-41.6q0-10.5-5.1-16.3-5.1-6-15-6-9.2 0-15 6-5.5 5.8-5.5 16.3v41.6q0 1.5-1.1 2.5-0.9 0.9-2.4 0.9zm119.7 0h-10.3q-8.4 0-13.7-3.1-5.2-3.3-7.6-9.2-2.4-6-2.4-14.1v-39.6h-11.7q-1.5 0-2.6-0.9-0.9-1-0.9-2.5v-5.1q0-1.5 0.9-2.4 1.1-1.1 2.6-1.1h11.7v-25q0-1.5 0.9-2.4 1-1.1 2.5-1.1h7.1q1.5 0 2.4 1.1 1 0.9 1 2.4v25h18.6q1.7 0 2.6 1.1 0.9 0.9 0.9 2.4v5.1q0 1.5-0.9 2.5-0.9 0.9-2.6 0.9h-18.6v38.6q0 7 2.4 11.1 2.4 4 8.6 4h9.1q1.5 0 2.4 1.1 1.1 0.9 1.1 2.4v5.4q0 1.5-1.1 2.5-0.9 0.9-2.4 0.9zm49.8 1.5q-11.4 0-19-4.3-7.6-4.4-11.7-12-4.1-7.8-4.5-17.7-0.2-2.6-0.2-6.5 0-4 0.2-6.4 0.4-10.1 4.5-17.7 4.2-7.7 11.8-12 7.7-4.4 18.9-4.4 11.3 0 18.9 4.4 7.7 4.3 11.7 12 4.2 7.6 4.7 17.7 0.1 2.4 0.1 6.4 0 3.9-0.1 6.5-0.5 9.8-4.5 17.7-4.1 7.6-11.7 12-7.7 4.3-19.1 4.3zm0-11.5q9.4 0 14.9-5.9 5.5-6 6-17.4 0.1-2.2 0.1-5.7 0-3.4-0.1-5.7-0.5-11.4-6-17.2-5.5-6-14.9-6-9.3 0-15 6-5.5 5.8-5.8 17.2-0.2 2.3-0.2 5.7 0 3.5 0.2 5.7 0.3 11.4 5.8 17.4 5.7 5.9 15 5.9zm65 10h-7.4q-1.5 0-2.5-0.9-0.9-1-0.9-2.5v-71q0-1.5 0.9-2.5 1-1.1 2.5-1.1h6.9q1.5 0 2.6 1.1 1 1 1 2.5v6.6q3-5.1 8.3-7.6 5.2-2.6 12.7-2.6h5.9q1.5 0 2.4 1.1 1 0.9 1 2.4v6.1q0 1.5-1 2.4-0.9 0.9-2.4 0.9h-9q-8.1 0-12.8 4.8-4.6 4.7-4.6 12.8v44.1q0 1.5-1.1 2.5-1 0.9-2.5 0.9zm73.2 1.5q-8.4 0-14.4-2.1-6-2.1-9.8-5.1-3.7-3-5.7-6-1.8-3-1.9-4.8-0.2-1.7 1-2.5 1.2-0.9 2.4-0.9h6.8q0.7 0 1.2 0.2 0.6 0.2 1.5 1.3 1.9 2.1 4.3 4.2 2.4 2 5.9 3.4 3.6 1.4 8.8 1.4 7.7 0 12.6-2.9 5-3 5-8.7 0-3.7-2.1-6-2-2.2-7.2-4-5.1-1.8-14.1-3.8-9-2.1-14.3-5.1-5.2-3.1-7.5-7.3-2.2-4.4-2.2-9.8 0-5.5 3.3-10.6 3.3-5.3 9.6-8.6 6.4-3.3 16-3.3 7.8 0 13.4 2 5.5 1.9 9.1 4.9 3.6 2.9 5.4 5.7 1.8 2.9 2 4.8 0.1 1.5-0.9 2.6-1.1 0.8-2.4 0.8h-6.3q-1.1 0-1.8-0.4-0.6-0.4-1.2-1.1-1.5-1.9-3.6-3.8-2-2-5.3-3.2-3.1-1.3-8.4-1.3-7.5 0-11.2 3.1-3.8 3.2-3.8 8 0 2.8 1.7 5.1 1.6 2.2 6.3 4 4.6 1.8 13.8 3.9 9.9 2 15.6 5.2 5.7 3.4 8.1 7.7 2.4 4.3 2.4 10.1 0 6.2-3.6 11.5-3.6 5.2-10.8 8.4-7.2 3-17.7 3z"/>
</svg>