<svg version="1.2" xmlns="http://www.w3.org/2000/svg" viewBox="0 0 627 478" width="627" height="478">
	<title>New Project</title>
	<style>
		.s0 { fill: #000000 } 
	</style>
	<path id=" LRN" class="s0" aria-label="
LRN"  d="m188.8 245.3v150.7h64.3v-20.5h-36.6v-130.2zm101.3 87.1c16.6 11.3 14.1 42.8 21.8 63.6h27.6c-4.7-24.3-7.1-53.4-17.6-73 10.5-5.7 15.3-19.3 15.3-34.2 0-28.5-14.1-43.5-47.1-43.5h-27.7v150.7h27.7zm0-20.5v-44.7c14.7 0 20.5 6.9 20.5 22.4 0 15.3-6.1 22.3-20.5 22.3zm85.3-1.4c9.6 28.6 19.5 56.9 29.2 85.5h24.6v-150.7h-25.3v85.5h-1.6c-9.6-28.6-19.5-57-29.2-85.5h-24.6v150.7h25.4v-85.5z"/>
	<path id="RE " class="s0" aria-label="RE
"  d="m255.5 170.4c16.7 11.3 14.1 42.8 21.8 63.6h27.7c-4.7-24.3-7.1-53.4-17.7-73 10.5-5.7 15.4-19.3 15.4-34.2 0-28.5-14.1-43.5-47.2-43.5h-27.7v150.7h27.7zm0-20.5v-44.7c14.7 0 20.5 6.9 20.5 22.4 0 15.3-6 22.3-20.5 22.3zm58.4-66.6v150.7h63.3v-22.8h-35.6v-41.4h25.6v-24.2h-25.6v-39.6h35.6v-22.7z"/>
</svg>