<?xml version="1.0" encoding="UTF-8"?>
<svg id="Layer_1" data-name="Layer 1" xmlns="http://www.w3.org/2000/svg" viewBox="0 0 493.37 295.55">
  <defs>
    <style>
      .cls-1 {
        fill: #f7941d;
      }
    </style>
  </defs>
  <path class="cls-1" d="m157.89,124.31l-26.97,48.48h54.58c-10.47,14.38-27.43,23.73-46.58,23.73-31.82,0-57.61-25.78-57.61-57.59s25.79-57.61,57.61-57.61c19.31,0,36.39,9.52,46.84,24.11l42.94-72.47C204.48,12.42,173.16,0,138.92,0,62.2,0,0,62.2,0,138.92s62.2,138.91,138.92,138.91c43.21,0,81.8-19.76,107.27-50.71v68.43l48.47-40.32V124.31h-136.77Z"/>
  <path d="m354.46,0c-64.24,0-118.28,43.62-134.16,102.85l89.27-.02c10.56-13.11,26.73-21.52,44.89-21.52,31.8,0,57.59,25.79,57.59,57.61s-25.79,57.59-57.59,57.59c-14.5,0-27.74-5.36-37.86-14.21v90.27c12.03,3.42,24.72,5.26,37.86,5.26,76.72,0,138.91-62.18,138.91-138.91S431.18,0,354.46,0Z"/>
</svg>